<svg width="34" height="34" viewBox="0 0 34 34" fill="none" xmlns="http://www.w3.org/2000/svg">
<path d="M23.7281 14.8804C22.5588 16.0516 22.5588 17.9484 23.7281 19.1196L32.8821 28.2882C34.052 29.46 34.0513 31.3582 32.8804 32.5291L32.5291 32.8804C31.3582 34.0513 29.46 34.052 28.2882 32.8821L19.1196 23.7281C17.9484 22.5588 16.0516 22.5588 14.8804 23.7281L5.71182 32.8821C4.53998 34.052 2.64178 34.0513 1.47087 32.8804L1.11963 32.5291C-0.0512816 31.3582 -0.0520377 29.46 1.11794 28.2882L10.2719 19.1196C11.4412 17.9484 11.4412 16.0516 10.2719 14.8804L1.11795 5.71182C-0.0520352 4.53997 -0.0512812 2.64178 1.11963 1.47087L1.47087 1.11963C2.64178 -0.0512813 4.53997 -0.0520372 5.71182 1.11794L14.8804 10.2719C16.0516 11.4412 17.9484 11.4412 19.1196 10.2719L28.2882 1.11794C29.46 -0.0520367 31.3582 -0.0512828 32.5291 1.11963L32.8804 1.47087C34.0513 2.64178 34.052 4.53997 32.8821 5.71182L23.7281 14.8804Z" fill="white"/>
</svg>
