<svg width="36" height="36" viewBox="0 0 36 36" fill="none" xmlns="http://www.w3.org/2000/svg">
<path d="M31.4204 17.3635V17.6817C31.4204 17.7878 31.4263 17.8939 31.4381 18V18.3183C31.4381 18.4244 31.4322 18.5305 31.4204 18.6365L36 21.4833L33.1886 28.2554L27.9371 27.053C27.6542 27.3595 27.3595 27.6542 27.053 27.9371L28.2554 33.1886L21.4833 36L18.6365 31.4204H18.3183C18.2122 31.4204 18.1061 31.4263 18 31.4381H17.6817C17.5756 31.4381 17.4695 31.4322 17.3635 31.4204L14.5167 36L7.7446 33.1886L8.94695 27.9371C8.64047 27.6542 8.34578 27.3595 8.06287 27.053L2.81139 28.2554L0 21.4833L4.57957 18.6365V18.3183C4.57957 18.2122 4.57367 18.1061 4.56189 18V17.6817C4.56189 17.5756 4.56778 17.4695 4.57957 17.3635L0 14.5167L2.81139 7.7446L8.06287 8.94695C8.34578 8.64047 8.64047 8.34578 8.94695 8.06287L7.7446 2.81139L14.5167 0L17.3635 4.57957H17.6817C17.7878 4.57957 17.8939 4.57367 18 4.56189H18.3183C18.4244 4.56189 18.5305 4.56778 18.6365 4.57957L21.4833 0L28.2554 2.81139L27.053 8.06287C27.3595 8.34578 27.6542 8.64047 27.9371 8.94695L33.1886 7.7446L36 14.5167L31.4204 17.3635ZM29.3517 19.6621C29.3752 19.3792 29.3988 19.1022 29.4224 18.831C29.446 18.5599 29.4578 18.277 29.4578 17.9823C29.4578 17.7112 29.446 17.4342 29.4224 17.1513C29.3988 16.8684 29.3752 16.5914 29.3517 16.3202L33.5246 13.721L32.0039 10.0432L27.2122 11.1572C26.8468 10.7092 26.4754 10.2967 26.0982 9.91945C25.721 9.54224 25.3026 9.16503 24.8428 8.78782L25.9568 3.99607L22.279 2.47544L19.6621 6.64833C19.391 6.62475 19.1139 6.60118 18.831 6.5776C18.5481 6.55403 18.2711 6.54224 18 6.54224C17.7171 6.54224 17.4401 6.55403 17.169 6.5776C16.8978 6.60118 16.6149 6.62475 16.3202 6.64833L13.721 2.47544L10.0432 3.99607L11.1572 8.78782C10.7092 9.15324 10.2967 9.52456 9.91945 9.90177C9.54224 10.279 9.16503 10.6974 8.78782 11.1572L3.99607 10.0432L2.47544 13.721L6.64833 16.3379C6.62475 16.6208 6.60118 16.8978 6.5776 17.169C6.55403 17.4401 6.54224 17.723 6.54224 18.0177C6.54224 18.2888 6.55403 18.5658 6.5776 18.8487C6.60118 19.1316 6.62475 19.4086 6.64833 19.6798L2.47544 22.279L3.99607 25.9568L8.78782 24.8428C9.15324 25.2908 9.52456 25.7033 9.90177 26.0806C10.279 26.4578 10.6974 26.835 11.1572 27.2122L10.0432 32.0039L13.721 33.5246L16.3379 29.3517C16.609 29.3752 16.8861 29.3988 17.169 29.4224C17.4519 29.446 17.7289 29.4578 18 29.4578C18.2829 29.4578 18.5599 29.446 18.831 29.4224C19.1022 29.3988 19.3851 29.3752 19.6798 29.3517L22.279 33.5246L25.9568 32.0039L24.8428 27.2122C25.2908 26.8468 25.7033 26.4754 26.0806 26.0982C26.4578 25.721 26.835 25.3026 27.2122 24.8428L32.0039 25.9568L33.5246 22.279L29.3517 19.6621ZM18 11.3517C18.9195 11.3517 19.78 11.5226 20.5815 11.8644C21.3831 12.2063 22.0904 12.6837 22.7033 13.2967C23.3163 13.9096 23.7878 14.611 24.1179 15.4008C24.4479 16.1906 24.6248 17.057 24.6483 18C24.6483 18.9195 24.4774 19.78 24.1356 20.5815C23.7937 21.3831 23.3163 22.0904 22.7033 22.7033C22.0904 23.3163 21.389 23.7878 20.5992 24.1179C19.8094 24.4479 18.943 24.6248 18 24.6483C17.0806 24.6483 16.22 24.4774 15.4185 24.1356C14.6169 23.7937 13.9096 23.3163 13.2967 22.7033C12.6837 22.0904 12.2122 21.389 11.8821 20.5992C11.5521 19.8094 11.3752 18.943 11.3517 18C11.3517 17.0806 11.5226 16.22 11.8644 15.4185C12.2063 14.6169 12.6837 13.9096 13.2967 13.2967C13.9096 12.6837 14.611 12.2122 15.4008 11.8821C16.1906 11.5521 17.057 11.3752 18 11.3517ZM18 22.668C18.6483 22.668 19.2554 22.5501 19.8212 22.3143C20.387 22.0786 20.8821 21.7426 21.3065 21.3065C21.7308 20.8703 22.0609 20.3752 22.2967 19.8212C22.5324 19.2672 22.6562 18.6601 22.668 18C22.668 17.3517 22.5501 16.7446 22.3143 16.1788C22.0786 15.613 21.7426 15.1179 21.3065 14.6935C20.8703 14.2692 20.3752 13.9391 19.8212 13.7033C19.2672 13.4676 18.6601 13.3438 18 13.332C17.3517 13.332 16.7446 13.4499 16.1788 13.6857C15.613 13.9214 15.1179 14.2574 14.6935 14.6935C14.2692 15.1297 13.9391 15.6248 13.7033 16.1788C13.4676 16.7328 13.3438 17.3399 13.332 18C13.332 18.6483 13.4499 19.2554 13.6857 19.8212C13.9214 20.387 14.2574 20.8821 14.6935 21.3065C15.1297 21.7308 15.6248 22.0609 16.1788 22.2967C16.7328 22.5324 17.3399 22.6562 18 22.668Z" fill="white"/>
</svg>
