<svg width="50" height="36" viewBox="0 0 50 36" fill="none" xmlns="http://www.w3.org/2000/svg">
<path d="M11.3281 17.9998C11.3281 14.3979 12.7502 11.0117 15.3325 8.46484C16.0953 7.71251 16.0953 6.49275 15.3325 5.74052C14.5698 4.98809 13.3332 4.98809 12.5704 5.74042C9.25029 9.01504 7.42188 13.3688 7.42188 17.9998C7.42188 22.6309 9.25029 26.9846 12.5704 30.2592C13.3331 31.0115 14.5697 31.0115 15.3325 30.2591C16.0953 29.5069 16.0953 28.2871 15.3325 27.5348C12.7502 24.988 11.3281 21.6017 11.3281 17.9998Z" fill="white" fill-opacity="0.5"/>
<path d="M3.90625 18.0001C3.90625 12.4429 6.10038 7.21829 10.0844 3.28885C10.8472 2.53652 10.8472 1.31676 10.0844 0.56443C9.32157 -0.187808 8.08495 -0.187808 7.32226 0.56443C2.60039 5.22176 0 11.4138 0 18.0001C0 24.5864 2.60039 30.7784 7.32236 35.4357C8.08495 36.1879 9.32167 36.1881 10.0845 35.4357C10.8473 34.6834 10.8473 33.4636 10.0845 32.7113C6.10038 28.7819 3.90625 23.5573 3.90625 18.0001Z" fill="white" fill-opacity="0.5"/>
<path d="M25 7.98274C19.3998 7.98274 14.8438 12.4764 14.8438 17.9999C14.8438 23.5233 19.3998 28.017 25 28.017C30.6002 28.017 35.1562 23.5233 35.1562 17.9999C35.1562 12.4764 30.6002 7.98274 25 7.98274ZM25 24.1643C21.5537 24.1643 18.75 21.3989 18.75 17.9999C18.75 14.6008 21.5537 11.8355 25 11.8355C28.4463 11.8355 31.25 14.6008 31.25 17.9999C31.25 21.3989 28.4463 24.1643 25 24.1643Z" fill="white" fill-opacity="0.5"/>
<path d="M42.6776 0.564202C41.9149 -0.188132 40.6783 -0.188035 39.9155 0.564299C39.1527 1.31663 39.1528 2.53629 39.9156 3.28862C43.8996 7.21807 46.0938 12.4426 46.0938 17.9999C46.0938 23.5571 43.8996 28.7816 39.9157 32.7111C39.1529 33.4634 39.1528 34.6831 39.9156 35.4354C40.6781 36.1875 41.9147 36.188 42.6777 35.4355C47.3995 30.7782 50 24.5861 50 17.9999C50 11.4136 47.3995 5.22153 42.6776 0.564202Z" fill="white" fill-opacity="0.5"/>
<path d="M37.4294 5.74049C36.6667 4.98815 35.4301 4.98825 34.6673 5.74059C33.9045 6.49292 33.9046 7.71257 34.6674 8.46491C37.2496 11.0117 38.6718 14.398 38.6718 17.9999C38.6718 21.6018 37.2497 24.9881 34.6674 27.5349C33.9046 28.2872 33.9045 29.5069 34.6673 30.2592C35.4298 31.0113 36.6664 31.0118 37.4294 30.2593C40.7495 26.9847 42.578 22.6309 42.578 17.9999C42.578 13.3688 40.7495 9.01511 37.4294 5.74049Z" fill="white" fill-opacity="0.5"/>
</svg>
