<svg width="220" height="220" viewBox="0 0 220 220" fill="none" xmlns="http://www.w3.org/2000/svg">
<path fill-rule="evenodd" clip-rule="evenodd" d="M220 110C220 170.751 170.751 220 110 220C49.2487 220 0 170.751 0 110C0 49.2487 49.2487 0 110 0C170.751 0 220 49.2487 220 110ZM88 110C88 120.125 79.7919 128.333 69.6667 128.333C59.5415 128.333 51.3334 120.125 51.3334 110C51.3334 99.8747 59.5415 91.6666 69.6667 91.6666C79.7919 91.6666 88 99.8747 88 110ZM150.333 128.333C160.459 128.333 168.667 120.125 168.667 110C168.667 99.8747 160.459 91.6666 150.333 91.6666C140.208 91.6666 132 99.8747 132 110C132 120.125 140.208 128.333 150.333 128.333Z" fill="white"/>
</svg>
